<svg xmlns="http://www.w3.org/2000/svg" viewBox="0 0 960 600">
  <defs>
    <linearGradient id="g" x1="0" y1="0" x2="1" y2="1">
      <stop offset="0" stop-color="#172EFF" stop-opacity="0.18"/>
      <stop offset="1" stop-color="#172EFF" stop-opacity="0.02"/>
    </linearGradient>
  </defs>
  <rect width="960" height="600" fill="url(#g)"/>
  <g fill="none" stroke="#172EFF" stroke-linejoin="round">
    <g opacity="0.65" stroke-width="2">
      <path d="M180 420l180-90 240 120-180 90z"/>
      <path d="M360 330v120l240 120v-120z"/>
      <path d="M180 420v120l240 120v-120z"/>
    </g>
    <g opacity="0.85" stroke-width="2.5">
      <path d="M300 290l90-45 120 60-90 45z"/>
      <path d="M390 245v90l120 60v-90z"/>
      <path d="M300 290v90l120 60v-90z"/>
      <path d="M450 320l75-38 100 50-75 38z"/>
      <path d="M525 282v75l100 50v-75z"/>
      <path d="M450 320v75l100 50v-75z"/>
    </g>
    <g opacity="0.95" stroke-width="3">
      <path d="M520 210l110-55 150 75-110 55z"/>
      <path d="M630 155v150l150 75v-150z"/>
      <path d="M520 210v150l150 75v-150z"/>
    </g>
    <g opacity="0.55" stroke-width="1.5">
      <path d="M140 440l200-100 280 140-200 100z"/>
      <path d="M140 460l200-100 280 140-200 100z"/>
      <path d="M140 480l200-100 280 140-200 100z"/>
    </g>
  </g>
</svg>
